<?xml version="1.0" standalone="no"?>
<!DOCTYPE svg PUBLIC "-//W3C//DTD SVG 20010904//EN"
 "http://www.w3.org/TR/2001/REC-SVG-20010904/DTD/svg10.dtd">
<svg version="1.0" xmlns="http://www.w3.org/2000/svg"
 width="502.000000pt" height="470.000000pt" viewBox="0 0 502.000000 470.000000"
 preserveAspectRatio="xMidYMid meet">

<g transform="translate(0.000000,470.000000) scale(0.100000,-0.100000)"
fill="#000000" stroke="none">
<path d="M0 2350 l0 -2350 2510 0 2510 0 0 1453 0 1453 -94 57 c-51 31 -98 57
-103 57 -5 0 -18 9 -29 21 -18 20 -18 20 10 13 16 -4 36 -13 45 -21 9 -8 51
-36 94 -63 l77 -50 0 291 0 291 -38 -23 c-38 -23 -283 -199 -292 -209 -10 -12
-220 -180 -225 -180 -3 0 4 12 15 28 31 42 123 120 195 166 106 67 326 219
332 229 3 5 0 13 -6 17 -9 5 -9 11 3 23 14 14 16 80 16 581 l0 566 -2510 0
-2510 0 0 -2350z m4000 2328 c-1 -7 -7 -26 -15 -43 l-15 -30 6 33 c5 30 -9 47
-18 21 -2 -7 -36 -13 -81 -15 -50 -2 -76 0 -72 6 3 6 21 10 38 10 18 1 46 7
62 15 39 17 95 19 95 3z m-1351 -154 l43 -6 -6 -41 c-13 -83 -14 -81 29 -90
22 -5 88 -20 147 -34 105 -24 128 -24 128 0 0 7 5 29 11 51 10 36 12 38 41 32
40 -8 240 -86 255 -100 9 -8 6 -23 -12 -60 -13 -27 -22 -53 -19 -58 3 -5 29
-20 57 -35 29 -14 84 -45 124 -69 39 -24 76 -44 81 -44 6 0 23 20 39 45 15 25
32 45 37 45 5 0 43 -26 84 -57 41 -32 90 -68 108 -80 56 -38 58 -54 13 -96
-21 -21 -39 -41 -39 -45 0 -5 15 -22 33 -40 l32 -31 140 14 c145 15 281 50
316 80 22 20 17 35 -12 35 -12 0 -19 5 -16 13 2 7 -13 17 -42 24 -51 14 -38
13 103 -8 59 -8 84 -8 104 0 21 10 24 10 14 -2 -16 -19 -5 -27 36 -27 20 0 43
-6 51 -13 9 -8 45 -26 81 -41 78 -33 212 -121 259 -170 49 -51 31 -45 -41 14
-87 70 -160 105 -250 120 -73 12 -199 10 -243 -4 -11 -3 -5 1 13 9 18 8 60 18
93 22 38 4 57 9 50 16 -6 6 -36 3 -83 -8 -61 -15 -83 -25 -122 -61 -35 -33
-56 -44 -79 -44 -18 0 -42 -3 -54 -6 -13 -4 -23 -2 -23 3 0 6 27 20 61 32 33
13 58 25 56 28 -7 7 -119 -26 -136 -40 -9 -8 -54 -11 -128 -10 -62 1 -113 -1
-113 -5 0 -14 102 -122 114 -122 7 0 30 13 50 29 21 17 43 28 49 25 18 -7 167
-226 167 -245 0 -4 -14 -5 -30 -3 -33 4 -70 -24 -70 -51 0 -8 20 -52 44 -98
25 -45 54 -108 66 -139 12 -32 25 -60 30 -63 5 -3 33 3 63 14 l55 19 16 -37
c17 -37 42 -122 52 -178 6 -31 5 -33 -24 -33 -44 0 -61 -9 -77 -41 -14 -25
-13 -33 5 -78 10 -27 24 -94 29 -148 12 -115 21 -126 92 -117 59 8 60 4 51
-131 l-7 -100 -55 -7 c-54 -8 -90 -33 -90 -63 0 -23 -24 -33 -88 -36 l-63 -4
-5 230 c-2 127 -4 242 -4 258 -1 15 -5 27 -11 27 -6 0 -8 4 -5 9 3 4 -2 53
-10 107 -9 54 -17 107 -17 116 -1 9 -5 14 -9 12 -4 -3 -8 7 -8 22 0 45 -51
194 -64 187 -6 -3 -8 -3 -4 2 12 13 -129 274 -153 283 -5 2 -9 10 -9 18 0 8
-13 20 -30 25 -16 6 -30 15 -30 21 0 6 -10 23 -22 38 -13 15 -34 42 -47 59
-17 23 -27 29 -36 21 -9 -8 -11 -4 -8 14 4 18 -3 29 -27 46 -17 12 -34 19 -37
16 -4 -3 -1 -6 6 -6 7 0 9 -5 5 -11 -12 -19 -24 13 -12 34 7 13 7 17 0 13 -6
-4 -15 1 -20 11 -9 15 -12 15 -29 3 -16 -14 -17 -13 -5 1 10 13 10 19 -2 28
-11 9 -16 9 -22 0 -5 -8 -3 -9 6 -4 9 6 11 4 5 -4 -5 -9 -13 -7 -31 10 -13 12
-24 27 -24 33 0 6 5 3 11 -6 5 -10 15 -18 22 -18 7 0 6 4 -3 10 -8 5 -11 10
-7 10 4 0 2 6 -5 14 -11 11 -14 11 -23 0 -8 -12 -15 -10 -36 10 -52 48 -225
157 -334 210 -275 135 -518 190 -830 190 -242 0 -421 -29 -629 -105 l-84 -30
-230 3 c-206 3 -256 7 -241 23 3 2 59 9 124 14 l120 10 -136 -4 c-112 -4 -139
-2 -149 10 -10 12 -8 18 11 34 32 26 233 141 247 141 6 0 21 -22 33 -50 12
-27 28 -50 36 -50 7 0 39 13 71 28 31 16 89 39 127 52 39 13 74 27 78 30 4 4
-1 31 -12 61 -12 29 -17 57 -13 60 11 12 281 71 296 66 8 -3 15 -27 18 -56 3
-28 8 -54 11 -57 3 -3 45 -1 94 5 48 6 116 11 150 11 54 0 63 3 68 21 4 11 4
32 0 46 -3 13 -3 34 1 45 5 18 12 19 117 13 62 -3 132 -8 156 -11z m2358 -182
c-5 -49 -24 -52 -29 -5 -6 45 -3 54 17 46 11 -4 14 -16 12 -41z m-1057 -332
c19 -6 9 -8 -37 -9 -34 -1 -65 4 -68 9 -7 12 68 12 105 0z m-3110 -118 c0 -4
-5 -13 -11 -19 -18 -18 -14 -70 35 -372 25 -157 46 -291 46 -298 0 -8 11 -25
25 -38 19 -20 21 -25 8 -25 -9 0 -25 8 -36 18 -19 16 -20 16 -14 -1 6 -15 2
-18 -21 -15 -15 2 -26 8 -25 15 2 7 -4 10 -12 7 -8 -4 -13 -9 -11 -13 3 -4 -7
-8 -22 -9 l-27 -2 23 15 c18 13 22 26 22 70 0 68 -14 108 -38 103 -9 -2 -17
-12 -17 -23 0 -11 -7 -23 -15 -27 -12 -5 -12 -7 3 -7 15 -1 16 -4 6 -22 -10
-19 -12 -20 -27 -6 -13 13 -13 21 -4 41 10 22 9 27 -9 37 -28 14 -37 4 -49
-59 -10 -57 -2 -94 25 -109 11 -7 -1 -10 -40 -11 -45 -1 -56 2 -52 12 5 12 1
12 -21 0 -43 -22 -59 -18 -34 9 29 31 37 56 63 195 l22 120 -21 27 c-28 35
-28 43 0 47 31 4 44 35 67 167 20 108 20 161 0 161 -5 0 -9 5 -9 10 0 6 35 10
85 10 47 0 85 -4 85 -8z m340 -2 c0 -5 -6 -10 -14 -10 -8 0 -17 -7 -20 -16 -3
-9 -6 -157 -6 -329 0 -304 1 -315 20 -325 21 -11 47 -3 69 23 6 8 16 54 22
103 13 103 21 129 47 143 14 8 24 6 38 -4 18 -15 18 -16 -10 -39 -25 -21 -29
-31 -29 -78 1 -29 10 -89 21 -133 12 -43 19 -81 17 -84 -3 -2 -11 2 -20 9 -11
9 -15 9 -15 1 0 -9 -40 -11 -146 -10 -104 2 -141 6 -125 12 20 10 21 16 21
178 0 158 -1 169 -20 179 -11 6 -20 17 -20 24 0 8 9 16 20 19 19 5 20 14 20
156 0 140 -1 152 -20 163 -35 22 -22 28 65 28 50 0 85 -4 85 -10z m440 1 c0
-5 -9 -13 -20 -16 -19 -6 -20 -15 -20 -330 0 -314 1 -325 20 -335 21 -11 47
-3 69 23 6 8 17 61 25 117 11 85 17 107 35 121 12 10 29 15 36 12 21 -7 18
-40 -4 -52 -30 -17 -34 -71 -11 -168 11 -49 23 -97 27 -108 5 -17 4 -18 -10
-7 -11 9 -17 10 -22 2 -5 -8 -54 -10 -152 -9 -129 3 -143 5 -124 17 20 14 21
22 21 175 l0 160 -26 24 -27 25 24 12 c23 11 24 15 27 159 2 138 1 147 -18
159 -35 22 -22 28 65 28 47 0 85 -4 85 -9z m-1382 -1027 c51 -41 106 -62 136
-51 7 3 16 20 20 38 3 18 11 50 17 71 l10 38 99 0 c55 0 100 -3 100 -7 0 -4
-11 -43 -25 -87 -74 -244 -88 -589 -36 -857 124 -629 559 -1155 1147 -1388
475 -188 1001 -172 1459 44 61 28 140 70 178 93 l67 42 215 0 c202 0 215 -1
225 -19 14 -26 13 -31 -5 -31 -30 0 -127 -39 -160 -65 -42 -31 -56 -31 -93 0
-17 14 -40 25 -53 25 -24 0 -37 -6 -114 -50 -22 -12 -60 -34 -85 -48 -25 -14
-51 -32 -57 -40 -19 -23 -16 -67 7 -104 28 -46 25 -55 -13 -50 -21 2 -59 -6
-100 -23 -36 -14 -74 -28 -84 -29 -22 -5 -47 12 -56 36 -3 9 -17 24 -31 34
-28 17 -40 16 -211 -21 -89 -19 -129 -57 -119 -109 3 -19 2 -36 -3 -39 -15 -9
-200 -20 -227 -13 -21 5 -26 12 -26 40 0 20 -8 40 -19 50 -21 19 -108 33 -230
38 -62 3 -72 0 -95 -21 -14 -14 -26 -33 -26 -43 0 -34 -41 -42 -122 -24 -40 9
-90 17 -110 18 -43 3 -44 5 -24 52 13 30 12 38 -2 66 -15 28 -33 38 -130 76
-63 24 -126 44 -140 44 -17 0 -41 -13 -65 -35 -21 -19 -40 -35 -43 -35 -2 0
-35 16 -73 36 -68 35 -87 42 -128 43 -29 1 -29 12 0 48 13 15 27 45 30 65 5
34 2 40 -34 72 -21 20 -42 36 -47 36 -4 0 -29 21 -55 45 -61 57 -112 74 -155
51 -48 -25 -71 -20 -118 26 -23 23 -61 49 -85 57 -23 9 -44 21 -46 26 -2 6 15
24 37 40 38 28 40 32 36 73 -4 43 -31 91 -81 144 -14 15 -25 31 -25 37 0 5
-14 23 -30 41 -27 29 -34 31 -68 25 -20 -4 -44 -8 -52 -10 -28 -5 -49 15 -80
76 -16 33 -40 73 -52 89 -27 37 -19 55 34 72 55 19 57 32 19 146 -17 50 -31
104 -31 119 0 41 -26 73 -58 73 -21 0 -23 -3 -12 -10 15 -9 16 -9 -34 -24 -8
-3 -17 2 -20 10 -3 8 1 14 9 14 8 0 15 5 15 11 0 6 -6 9 -14 6 -30 -12 -45 18
-61 113 -24 150 -25 145 43 156 l57 9 3 154 c3 144 1 155 -18 173 -21 19 -94
32 -83 15 3 -6 1 -7 -5 -3 -7 4 -12 23 -12 42 0 36 26 222 35 245 3 9 -27 38
-81 78 -46 35 -87 68 -91 74 -7 12 89 -56 155 -109z m1950 68 c38 -27 78 -104
98 -188 19 -78 26 -369 9 -394 -5 -8 -10 -19 -10 -25 -1 -5 -5 -19 -9 -30 -4
-11 -13 -33 -19 -50 -44 -117 -132 -164 -210 -111 -21 14 -44 26 -51 26 -14 0
-38 49 -56 115 -7 22 -14 112 -17 201 -6 190 10 294 60 388 51 94 130 121 205
68z m-991 -10 c-23 -26 -22 -63 14 -284 58 -363 79 -500 79 -509 0 -6 11 -21
25 -34 l24 -25 -99 0 -99 0 26 26 c24 24 25 30 19 86 -12 101 -27 125 -60 92
-12 -12 -13 -20 -5 -35 22 -42 -20 -81 -50 -45 -9 10 -9 20 1 41 11 24 10 29
-7 41 -30 22 -39 12 -52 -52 -15 -69 -10 -103 18 -133 l20 -21 -101 1 -102 1
26 27 c27 28 40 71 76 261 l19 105 -24 25 c-31 32 -32 48 -2 52 33 5 53 57 79
206 22 126 22 134 6 162 l-17 30 101 0 c97 0 100 -1 85 -18z m507 4 c18 -8 46
-31 62 -52 26 -34 29 -45 29 -118 0 -71 -4 -89 -32 -146 l-32 -65 24 -25 c49
-51 70 -117 70 -215 -1 -66 -5 -99 -18 -123 -10 -18 -22 -30 -27 -27 -5 3 -10
-4 -12 -16 -2 -14 -18 -30 -43 -43 -34 -18 -61 -22 -178 -24 l-139 -4 21 21
c20 20 21 32 21 209 l0 189 -25 11 c-29 14 -33 42 -6 42 10 0 22 7 25 16 3 9
6 89 6 179 l0 163 -27 21 -28 20 138 1 c96 0 148 -4 171 -14z m865 -5 l-24
-19 0 -357 0 -357 28 -24 c45 -38 113 -27 136 23 7 16 11 137 11 368 l0 344
-26 20 -27 21 102 0 102 0 -26 -22 -26 -23 -5 -320 c-3 -176 -10 -334 -16
-352 -13 -43 -98 -119 -140 -125 -65 -10 -114 18 -186 105 -22 27 -23 36 -20
140 l3 112 -32 33 c-39 40 -41 50 -10 54 21 3 22 7 27 158 6 193 4 207 -29
225 -24 13 -18 14 78 15 103 0 103 0 80 -19z m911 12 c0 -5 -9 -23 -20 -40
-16 -27 -26 -33 -53 -33 -18 0 -41 6 -52 13 -51 33 -139 2 -116 -42 7 -13 11
-142 11 -366 l0 -347 -36 7 c-26 4 -40 2 -46 -7 -5 -8 -8 59 -7 162 1 103 6
178 11 181 6 4 1 16 -11 28 -12 12 -26 19 -31 16 -5 -3 -14 4 -20 15 -9 18 -8
20 14 20 15 0 27 7 30 18 8 29 11 306 3 320 -13 20 -69 14 -112 -13 -45 -28
-61 -30 -68 -12 -3 6 -12 29 -21 50 l-16 37 270 0 c148 0 270 -3 270 -7z
m-440 -218 c0 -42 -5 -60 -20 -75 -12 -12 -25 -18 -30 -15 -4 3 -10 0 -12 -7
-3 -9 -6 -9 -12 0 -4 8 2 16 18 22 23 9 26 15 26 63 0 30 3 57 7 60 16 17 23
3 23 -48z m364 19 c3 -9 6 -36 6 -60 0 -32 4 -44 15 -44 8 0 15 -7 15 -15 0
-10 -6 -12 -17 -8 -34 13 -43 32 -43 87 0 54 11 73 24 40z m1191 -161 c-3 -16
-11 -32 -16 -37 -5 -6 -4 5 1 25 6 18 10 35 10 36 0 2 3 3 6 3 3 0 3 -12 -1
-27z m-4301 -55 c-7 -12 -44 -10 -44 2 0 5 11 9 24 8 14 -1 22 -6 20 -10z
m4059 -405 c-13 -2 -33 -2 -45 0 -13 2 -3 4 22 4 25 0 35 -2 23 -4z m-2207
-46 c4 -4 -10 -7 -32 -7 -28 0 -35 3 -24 10 16 10 45 8 56 -3z m194 -137 c-27
-26 -31 -35 -26 -63 3 -17 21 -138 40 -267 46 -316 56 -371 67 -364 5 3 9 13
9 22 0 9 26 151 59 315 32 164 56 309 53 323 -2 14 -17 31 -33 40 -16 8 -29
17 -29 19 0 3 55 5 122 5 l121 0 -49 -48 c-36 -35 -50 -56 -51 -79 -4 -63 -12
-109 -23 -137 -6 -16 -8 -43 -5 -60 4 -24 3 -27 -4 -11 -8 16 -10 12 -10 -21
-1 -22 -4 -44 -8 -48 -4 -3 -8 -16 -10 -29 -7 -40 -12 -81 -16 -118 -2 -20 -7
-41 -11 -47 -6 -10 -32 -123 -40 -172 -1 -9 -5 -20 -9 -27 -4 -6 -5 -26 -3
-44 3 -19 2 -43 0 -55 -5 -19 -11 -20 -54 -16 -30 3 -59 -1 -77 -10 l-28 -14
0 76 c0 41 -3 82 -6 90 -13 28 -24 133 -21 199 4 77 -14 106 -55 90 -28 -10
-43 -5 -43 17 0 8 10 14 26 14 l27 0 -8 128 c-4 70 -8 150 -9 177 -1 53 -25
88 -84 127 -27 18 -25 18 97 18 l123 0 -32 -30z m770 19 c0 -4 -7 -9 -14 -12
-36 -14 -31 -68 39 -492 8 -49 22 -135 30 -190 8 -55 21 -132 29 -172 l14 -72
-21 14 c-24 17 -78 20 -93 5 -12 -12 -11 106 1 158 5 22 4 32 -4 32 -7 0 -10
4 -6 9 6 11 -29 33 -39 24 -9 -10 -136 -12 -136 -2 0 4 -6 6 -14 3 -22 -8 -33
-46 -25 -84 4 -19 9 -63 11 -96 3 -52 2 -59 -10 -48 -20 21 -65 17 -103 -9
-44 -30 -70 -43 -47 -25 30 25 57 92 73 183 8 50 24 128 34 173 16 72 16 85 4
95 -8 7 -24 21 -36 31 l-21 20 32 8 c49 13 62 47 97 263 19 118 19 141 -4 164
-11 11 -18 21 -16 23 7 6 225 4 225 -3z m610 -22 c25 -12 54 -36 66 -54 29
-43 39 -126 21 -161 -40 -77 -92 -156 -122 -188 -57 -60 -105 -115 -106 -122
-1 -4 -13 -24 -25 -44 -29 -46 -29 -50 -4 -66 11 -7 20 -17 20 -23 0 -8 -4 -8
-13 -1 -7 6 -23 9 -35 5 -19 -5 -22 -1 -22 29 0 38 24 79 119 203 69 91 87
137 95 250 5 64 3 85 -10 103 -34 49 -135 67 -201 35 -41 -19 -51 -38 -34 -65
14 -22 14 -811 0 -802 -20 12 -62 14 -75 3 -12 -10 -14 11 -14 135 0 81 5 179
12 217 10 64 10 71 -8 83 -10 8 -22 12 -27 9 -9 -6 -37 15 -37 28 0 5 8 9 19
9 10 0 23 6 29 13 6 7 12 88 13 196 l3 183 -27 24 c-15 12 -27 25 -27 27 0 2
78 2 173 -1 151 -3 177 -6 217 -25z m630 20 c0 -23 -33 -66 -60 -77 -26 -11
-36 -10 -79 9 -58 24 -108 27 -136 6 -20 -16 -29 -62 -13 -71 4 -3 8 -68 8
-145 l0 -139 34 0 c19 0 45 9 60 21 l26 20 0 -56 0 -57 -29 7 c-36 8 -107 -10
-114 -29 -3 -7 1 -26 9 -41 10 -19 14 -64 14 -154 0 -147 9 -174 58 -179 68
-7 100 37 121 162 14 80 32 121 62 136 15 9 24 8 35 -1 21 -18 17 -38 -11 -49
-23 -9 -25 -15 -25 -67 0 -32 7 -85 15 -118 22 -92 23 -90 -42 -91 -32 0 -78
-5 -103 -10 -34 -8 -57 -7 -94 4 -27 7 -64 12 -83 10 l-33 -4 0 174 c0 95 4
181 9 191 12 22 -8 66 -31 66 -10 0 -23 6 -30 14 -11 11 -10 14 1 18 7 3 22
14 32 24 17 17 19 36 19 197 0 144 -3 182 -16 200 -8 12 -22 22 -30 22 -8 0
-14 4 -14 8 0 4 99 8 220 7 121 0 220 -4 220 -8z m-45 -277 c15 0 30 -18 22
-27 -11 -10 -66 22 -71 42 -11 38 -6 63 12 67 14 3 18 -5 20 -39 2 -29 8 -43
17 -43z m-3755 -375 c-7 -8 -21 -15 -32 -15 -17 0 -18 3 -8 15 7 8 21 15 32
15 17 0 18 -3 8 -15z m1868 -312 c-10 -2 -26 -2 -35 0 -10 3 -2 5 17 5 19 0
27 -2 18 -5z m1655 0 c-13 -2 -33 -2 -45 0 -13 2 -3 4 22 4 25 0 35 -2 23 -4z
m195 0 c-16 -2 -40 -2 -55 0 -16 2 -3 4 27 4 30 0 43 -2 28 -4z m-1283 -623
c3 -5 2 -10 -4 -10 -5 0 -13 5 -16 10 -3 6 -2 10 4 10 5 0 13 -4 16 -10z m125
-60 c-8 -5 -22 -9 -30 -9 -10 0 -8 3 5 9 27 12 43 12 25 0z m100 -96 c41 -42
68 -73 60 -69 -26 14 -160 129 -160 137 0 23 33 0 100 -68z m-692 -21 c-10 -2
-26 -2 -35 0 -10 3 -2 5 17 5 19 0 27 -2 18 -5z"/>
<path d="M2153 4251 c-34 -3 -65 -9 -69 -14 -4 -4 8 -4 27 0 44 9 445 10 524
1 49 -5 54 -5 30 4 -34 12 -418 19 -512 9z"/>
<path d="M2009 4226 c-2 -3 -17 -7 -33 -10 -47 -8 -43 -16 5 -10 43 6 79 24
48 24 -9 0 -18 -2 -20 -4z"/>
<path d="M2725 4220 c27 -12 35 -12 35 0 0 6 -12 10 -27 9 -25 0 -26 -1 -8 -9z"/>
<path d="M2865 4189 c73 -23 122 -33 114 -25 -7 7 -149 46 -164 45 -5 -1 17
-9 50 -20z"/>
<path d="M1898 4193 c7 -3 16 -2 19 1 4 3 -2 6 -13 5 -11 0 -14 -3 -6 -6z"/>
<path d="M1805 4170 l-30 -8 27 -1 c15 0 30 4 33 9 3 6 5 9 3 9 -2 -1 -16 -5
-33 -9z"/>
<path d="M1687 4134 c-3 -4 -43 -6 -89 -5 -45 1 -80 0 -77 -3 11 -11 161 -8
172 3 6 6 9 11 6 11 -3 0 -9 -3 -12 -6z"/>
<path d="M3054 4129 c-3 -5 6 -9 20 -9 31 0 34 6 6 13 -11 3 -23 1 -26 -4z"/>
<path d="M3205 4060 c11 -18 43 -31 50 -20 4 6 3 10 -2 9 -20 -3 -34 2 -28 11
3 6 -1 10 -10 10 -9 0 -13 -4 -10 -10z"/>
<path d="M3320 4000 c0 -5 11 -12 25 -16 14 -3 25 -10 25 -14 0 -4 9 -10 20
-13 28 -7 25 -3 -20 27 -44 29 -50 31 -50 16z"/>
<path d="M3430 3927 c0 -3 16 -14 35 -26 19 -11 35 -17 35 -12 0 7 -14 15 -62
39 -5 2 -8 1 -8 -1z"/>
<path d="M3510 3871 c0 -13 28 -33 33 -23 3 4 -3 13 -14 20 -10 7 -19 8 -19 3z"/>
<path d="M3555 3820 c4 -6 11 -8 16 -5 14 9 11 15 -7 15 -8 0 -12 -5 -9 -10z"/>
<path d="M747 3690 c-4 -8 -15 -69 -26 -135 l-20 -120 25 -25 24 -24 20 20
c19 19 20 25 10 118 -15 131 -26 184 -33 166z"/>
<path d="M640 3160 c0 -5 5 -10 10 -10 6 0 10 5 10 10 0 6 -4 10 -10 10 -5 0
-10 -4 -10 -10z"/>
<path d="M1093 3163 c9 -2 23 -2 30 0 6 3 -1 5 -18 5 -16 0 -22 -2 -12 -5z"/>
<path d="M1523 3163 c9 -2 25 -2 35 0 9 3 1 5 -18 5 -19 0 -27 -2 -17 -5z"/>
<path d="M1693 3163 c9 -2 25 -2 35 0 9 3 1 5 -18 5 -19 0 -27 -2 -17 -5z"/>
<path d="M2049 2827 c-28 -59 -43 -222 -35 -394 9 -200 35 -273 97 -273 37 0
76 48 86 108 13 75 9 461 -5 509 -16 56 -48 88 -90 90 -29 1 -35 -4 -53 -40z"/>
<path d="M1097 2707 c-3 -8 -15 -78 -28 -157 l-22 -142 25 -25 c25 -24 26 -25
52 -8 14 10 26 23 26 30 0 25 -39 308 -43 312 -3 2 -7 -3 -10 -10z"/>
<path d="M1195 2090 c-4 -6 6 -7 27 -3 44 8 48 13 10 13 -17 0 -34 -4 -37 -10z"/>
<path d="M988 2083 c7 -3 16 -2 19 1 4 3 -2 6 -13 5 -11 0 -14 -3 -6 -6z"/>
<path d="M1573 2860 c-23 -9 -23 -10 -22 -242 0 -136 4 -224 9 -212 4 11 36
62 69 113 70 107 96 181 86 244 -8 48 -34 97 -51 97 -6 0 -24 2 -40 5 -16 2
-39 0 -51 -5z"/>
<path d="M1621 2445 c-33 -38 -40 -65 -16 -65 23 0 38 -35 20 -50 -18 -15 -53
3 -65 33 -6 15 -9 -11 -9 -80 -1 -99 0 -103 24 -119 28 -18 85 -14 112 7 55
46 63 165 17 250 -16 29 -34 54 -40 56 -6 2 -25 -12 -43 -32z"/>
<path d="M1735 2129 c-11 -17 1 -21 15 -4 8 9 8 15 2 15 -6 0 -14 -5 -17 -11z"/>
<path d="M1520 2100 c20 -13 33 -13 25 0 -3 6 -14 10 -23 10 -15 0 -15 -2 -2
-10z"/>
<path d="M1470 2090 c0 -5 7 -7 15 -4 8 4 15 8 15 10 0 2 -7 4 -15 4 -8 0 -15
-4 -15 -10z"/>
<path d="M2976 1702 c-9 -15 -29 -149 -43 -290 -6 -61 -5 -65 22 -88 35 -30
36 -30 65 1 22 23 22 28 15 122 -9 114 -11 128 -27 206 -11 54 -20 68 -32 49z"/>
</g>
</svg>
